<mxfile host="app.diagrams.net" modified="2021-10-08T04:32:48.968Z" agent="5.0 (Windows NT 10.0; Win64; x64) AppleWebKit/537.36 (KHTML, like Gecko) Chrome/94.0.4606.71 Safari/537.36" etag="vSU1GDWKyVDnrpAx-fYf" version="15.4.3" type="github">
  <diagram id="C5RBs43oDa-KdzZeNtuy" name="Page-1">
    <mxGraphModel dx="460" dy="792" grid="1" gridSize="10" guides="1" tooltips="1" connect="1" arrows="1" fold="1" page="1" pageScale="1" pageWidth="827" pageHeight="1169" math="0" shadow="0">
      <root>
        <mxCell id="WIyWlLk6GJQsqaUBKTNV-0" />
        <mxCell id="WIyWlLk6GJQsqaUBKTNV-1" parent="WIyWlLk6GJQsqaUBKTNV-0" />
        <mxCell id="zkfFHV4jXpPFQw0GAbJ--0" value="BlackoutController" style="swimlane;fontStyle=2;align=center;verticalAlign=top;childLayout=stackLayout;horizontal=1;startSize=26;horizontalStack=0;resizeParent=1;resizeLast=0;collapsible=1;marginBottom=0;rounded=0;shadow=0;strokeWidth=1;" parent="WIyWlLk6GJQsqaUBKTNV-1" vertex="1">
          <mxGeometry x="30" y="10" width="340" height="470" as="geometry">
            <mxRectangle x="230" y="140" width="160" height="26" as="alternateBounds" />
          </mxGeometry>
        </mxCell>
        <mxCell id="zkfFHV4jXpPFQw0GAbJ--2" value="+ createDevice(String deviceId, String type, Angle position):" style="text;align=left;verticalAlign=top;spacingLeft=4;spacingRight=4;overflow=hidden;rotatable=0;points=[[0,0.5],[1,0.5]];portConstraint=eastwest;rounded=0;shadow=0;html=0;" parent="zkfFHV4jXpPFQw0GAbJ--0" vertex="1">
          <mxGeometry y="26" width="340" height="24" as="geometry" />
        </mxCell>
        <mxCell id="e4m-j2ss9lmUibt1OsKQ-3" value="&amp;nbsp;+ removeDevice(String deviceId):" style="text;html=1;strokeColor=none;fillColor=none;align=left;verticalAlign=middle;whiteSpace=wrap;rounded=0;" vertex="1" parent="zkfFHV4jXpPFQw0GAbJ--0">
          <mxGeometry y="50" width="340" height="30" as="geometry" />
        </mxCell>
        <mxCell id="e4m-j2ss9lmUibt1OsKQ-4" value="&amp;nbsp;+ createSatellite(String satelliteId,String type, double height,&lt;br&gt;&amp;nbsp; &amp;nbsp; Angle position)" style="text;html=1;strokeColor=none;fillColor=none;align=left;verticalAlign=middle;whiteSpace=wrap;rounded=0;" vertex="1" parent="zkfFHV4jXpPFQw0GAbJ--0">
          <mxGeometry y="80" width="340" height="30" as="geometry" />
        </mxCell>
        <mxCell id="e4m-j2ss9lmUibt1OsKQ-5" value="&amp;nbsp;+ removeSatellite(String satelliteId):" style="text;html=1;strokeColor=none;fillColor=none;align=left;verticalAlign=middle;whiteSpace=wrap;rounded=0;" vertex="1" parent="zkfFHV4jXpPFQw0GAbJ--0">
          <mxGeometry y="110" width="340" height="30" as="geometry" />
        </mxCell>
        <mxCell id="e4m-j2ss9lmUibt1OsKQ-6" value="&amp;nbsp;+ listDevice():List&amp;lt;String&amp;gt;" style="text;html=1;strokeColor=none;fillColor=none;align=left;verticalAlign=middle;whiteSpace=wrap;rounded=0;" vertex="1" parent="zkfFHV4jXpPFQw0GAbJ--0">
          <mxGeometry y="140" width="340" height="30" as="geometry" />
        </mxCell>
        <mxCell id="e4m-j2ss9lmUibt1OsKQ-7" value="&amp;nbsp;+ listSatellite():List&amp;lt;String&amp;gt;" style="text;html=1;strokeColor=none;fillColor=none;align=left;verticalAlign=middle;whiteSpace=wrap;rounded=0;" vertex="1" parent="zkfFHV4jXpPFQw0GAbJ--0">
          <mxGeometry y="170" width="340" height="30" as="geometry" />
        </mxCell>
        <mxCell id="e4m-j2ss9lmUibt1OsKQ-8" value="&amp;nbsp;+ addFileToDevice(String deviceId,String filename, String&amp;nbsp; &amp;nbsp; &amp;nbsp; &amp;nbsp; &amp;nbsp;content)" style="text;html=1;strokeColor=none;fillColor=none;align=left;verticalAlign=middle;whiteSpace=wrap;rounded=0;" vertex="1" parent="zkfFHV4jXpPFQw0GAbJ--0">
          <mxGeometry y="200" width="340" height="30" as="geometry" />
        </mxCell>
        <mxCell id="e4m-j2ss9lmUibt1OsKQ-9" value="&amp;nbsp;+ getInfo(String id):EntityInfoResponse" style="text;html=1;strokeColor=none;fillColor=none;align=left;verticalAlign=middle;whiteSpace=wrap;rounded=0;" vertex="1" parent="zkfFHV4jXpPFQw0GAbJ--0">
          <mxGeometry y="230" width="340" height="30" as="geometry" />
        </mxCell>
        <mxCell id="e4m-j2ss9lmUibt1OsKQ-10" value="&amp;nbsp;+ simulate()" style="text;html=1;strokeColor=none;fillColor=none;align=left;verticalAlign=middle;whiteSpace=wrap;rounded=0;" vertex="1" parent="zkfFHV4jXpPFQw0GAbJ--0">
          <mxGeometry y="260" width="340" height="30" as="geometry" />
        </mxCell>
        <mxCell id="e4m-j2ss9lmUibt1OsKQ-11" value="&amp;nbsp;+simulate(int numberOfMinutes):" style="text;html=1;strokeColor=none;fillColor=none;align=left;verticalAlign=middle;whiteSpace=wrap;rounded=0;" vertex="1" parent="zkfFHV4jXpPFQw0GAbJ--0">
          <mxGeometry y="290" width="340" height="30" as="geometry" />
        </mxCell>
        <mxCell id="e4m-j2ss9lmUibt1OsKQ-12" value="&amp;nbsp;+communicableEntitiesInRange(String id): List&amp;lt;String&amp;gt;" style="text;html=1;strokeColor=none;fillColor=none;align=left;verticalAlign=middle;whiteSpace=wrap;rounded=0;" vertex="1" parent="zkfFHV4jXpPFQw0GAbJ--0">
          <mxGeometry y="320" width="340" height="30" as="geometry" />
        </mxCell>
        <mxCell id="e4m-j2ss9lmUibt1OsKQ-13" value="&amp;nbsp;+sendFile(String fileName, String fromId,String toId):" style="text;html=1;strokeColor=none;fillColor=none;align=left;verticalAlign=middle;whiteSpace=wrap;rounded=0;" vertex="1" parent="zkfFHV4jXpPFQw0GAbJ--0">
          <mxGeometry y="350" width="340" height="30" as="geometry" />
        </mxCell>
        <mxCell id="e4m-j2ss9lmUibt1OsKQ-14" value="&amp;nbsp;-&amp;nbsp;checkIdExist(String Id):boolean" style="text;html=1;strokeColor=none;fillColor=none;align=left;verticalAlign=middle;whiteSpace=wrap;rounded=0;" vertex="1" parent="zkfFHV4jXpPFQw0GAbJ--0">
          <mxGeometry y="380" width="340" height="30" as="geometry" />
        </mxCell>
        <mxCell id="e4m-j2ss9lmUibt1OsKQ-15" value="&amp;nbsp;- findSatellites(String id): Satellite" style="text;html=1;strokeColor=none;fillColor=none;align=left;verticalAlign=middle;whiteSpace=wrap;rounded=0;" vertex="1" parent="zkfFHV4jXpPFQw0GAbJ--0">
          <mxGeometry y="410" width="340" height="30" as="geometry" />
        </mxCell>
        <mxCell id="e4m-j2ss9lmUibt1OsKQ-16" value="&amp;nbsp;- findDevice(String id): Device" style="text;html=1;strokeColor=none;fillColor=none;align=left;verticalAlign=middle;whiteSpace=wrap;rounded=0;" vertex="1" parent="zkfFHV4jXpPFQw0GAbJ--0">
          <mxGeometry y="440" width="340" height="30" as="geometry" />
        </mxCell>
        <mxCell id="zkfFHV4jXpPFQw0GAbJ--17" value="Device" style="swimlane;fontStyle=0;align=center;verticalAlign=top;childLayout=stackLayout;horizontal=1;startSize=26;horizontalStack=0;resizeParent=1;resizeLast=0;collapsible=1;marginBottom=0;rounded=0;shadow=0;strokeWidth=1;" parent="WIyWlLk6GJQsqaUBKTNV-1" vertex="1">
          <mxGeometry x="590" width="250" height="460" as="geometry">
            <mxRectangle x="550" y="140" width="160" height="26" as="alternateBounds" />
          </mxGeometry>
        </mxCell>
        <mxCell id="zkfFHV4jXpPFQw0GAbJ--18" value="- deviceId: String" style="text;align=left;verticalAlign=top;spacingLeft=4;spacingRight=4;overflow=hidden;rotatable=0;points=[[0,0.5],[1,0.5]];portConstraint=eastwest;" parent="zkfFHV4jXpPFQw0GAbJ--17" vertex="1">
          <mxGeometry y="26" width="250" height="26" as="geometry" />
        </mxCell>
        <mxCell id="zkfFHV4jXpPFQw0GAbJ--19" value="- position: Angle" style="text;align=left;verticalAlign=top;spacingLeft=4;spacingRight=4;overflow=hidden;rotatable=0;points=[[0,0.5],[1,0.5]];portConstraint=eastwest;rounded=0;shadow=0;html=0;" parent="zkfFHV4jXpPFQw0GAbJ--17" vertex="1">
          <mxGeometry y="52" width="250" height="26" as="geometry" />
        </mxCell>
        <mxCell id="zkfFHV4jXpPFQw0GAbJ--21" value="- type: String" style="text;align=left;verticalAlign=top;spacingLeft=4;spacingRight=4;overflow=hidden;rotatable=0;points=[[0,0.5],[1,0.5]];portConstraint=eastwest;rounded=0;shadow=0;html=0;" parent="zkfFHV4jXpPFQw0GAbJ--17" vertex="1">
          <mxGeometry y="78" width="250" height="26" as="geometry" />
        </mxCell>
        <mxCell id="zkfFHV4jXpPFQw0GAbJ--22" value="- file: Map&lt;String, FileInfoResponse&gt;" style="text;align=left;verticalAlign=top;spacingLeft=4;spacingRight=4;overflow=hidden;rotatable=0;points=[[0,0.5],[1,0.5]];portConstraint=eastwest;rounded=0;shadow=0;html=0;" parent="zkfFHV4jXpPFQw0GAbJ--17" vertex="1">
          <mxGeometry y="104" width="250" height="26" as="geometry" />
        </mxCell>
        <mxCell id="e4m-j2ss9lmUibt1OsKQ-17" value="-default_file: Map&amp;lt;String, FileInfoResponse&amp;gt;" style="text;html=1;strokeColor=none;fillColor=none;align=center;verticalAlign=middle;whiteSpace=wrap;rounded=0;" vertex="1" parent="zkfFHV4jXpPFQw0GAbJ--17">
          <mxGeometry y="130" width="250" height="30" as="geometry" />
        </mxCell>
        <mxCell id="zkfFHV4jXpPFQw0GAbJ--23" value="" style="line;html=1;strokeWidth=1;align=left;verticalAlign=middle;spacingTop=-1;spacingLeft=3;spacingRight=3;rotatable=0;labelPosition=right;points=[];portConstraint=eastwest;" parent="zkfFHV4jXpPFQw0GAbJ--17" vertex="1">
          <mxGeometry y="160" width="250" height="20" as="geometry" />
        </mxCell>
        <mxCell id="e4m-j2ss9lmUibt1OsKQ-18" value="&amp;nbsp;+ Device(String deviceId, Angle position,&amp;nbsp; &amp;nbsp;String type): Device" style="text;html=1;strokeColor=none;fillColor=none;align=left;verticalAlign=middle;whiteSpace=wrap;rounded=0;" vertex="1" parent="zkfFHV4jXpPFQw0GAbJ--17">
          <mxGeometry y="180" width="250" height="30" as="geometry" />
        </mxCell>
        <mxCell id="e4m-j2ss9lmUibt1OsKQ-19" value="&amp;nbsp;+ getDeviceId(): String" style="text;html=1;strokeColor=none;fillColor=none;align=left;verticalAlign=middle;whiteSpace=wrap;rounded=0;" vertex="1" parent="zkfFHV4jXpPFQw0GAbJ--17">
          <mxGeometry y="210" width="250" height="30" as="geometry" />
        </mxCell>
        <mxCell id="e4m-j2ss9lmUibt1OsKQ-20" value="&amp;nbsp;+ getPosition(): Angle" style="text;html=1;strokeColor=none;fillColor=none;align=left;verticalAlign=middle;whiteSpace=wrap;rounded=0;" vertex="1" parent="zkfFHV4jXpPFQw0GAbJ--17">
          <mxGeometry y="240" width="250" height="30" as="geometry" />
        </mxCell>
        <mxCell id="e4m-j2ss9lmUibt1OsKQ-21" value="&amp;nbsp;+ getType():String" style="text;html=1;strokeColor=none;fillColor=none;align=left;verticalAlign=middle;whiteSpace=wrap;rounded=0;" vertex="1" parent="zkfFHV4jXpPFQw0GAbJ--17">
          <mxGeometry y="270" width="250" height="30" as="geometry" />
        </mxCell>
        <mxCell id="e4m-j2ss9lmUibt1OsKQ-22" value="&amp;nbsp;+ getFile(): Map&amp;lt;String, FileInfoResponse&amp;gt;" style="text;html=1;strokeColor=none;fillColor=none;align=left;verticalAlign=middle;whiteSpace=wrap;rounded=0;" vertex="1" parent="zkfFHV4jXpPFQw0GAbJ--17">
          <mxGeometry y="300" width="250" height="30" as="geometry" />
        </mxCell>
        <mxCell id="e4m-j2ss9lmUibt1OsKQ-23" value="+setFile(String fileName, String fileContent)" style="text;html=1;strokeColor=none;fillColor=none;align=center;verticalAlign=middle;whiteSpace=wrap;rounded=0;" vertex="1" parent="zkfFHV4jXpPFQw0GAbJ--17">
          <mxGeometry y="330" width="250" height="30" as="geometry" />
        </mxCell>
        <mxCell id="e4m-j2ss9lmUibt1OsKQ-24" value="&amp;nbsp;+ isLinked(Satellite satellite): boolean" style="text;html=1;strokeColor=none;fillColor=none;align=left;verticalAlign=middle;whiteSpace=wrap;rounded=0;" vertex="1" parent="zkfFHV4jXpPFQw0GAbJ--17">
          <mxGeometry y="360" width="250" height="30" as="geometry" />
        </mxCell>
        <mxCell id="e4m-j2ss9lmUibt1OsKQ-25" value="&amp;nbsp;+ getMaxRange(): double" style="text;html=1;strokeColor=none;fillColor=none;align=left;verticalAlign=middle;whiteSpace=wrap;rounded=0;" vertex="1" parent="zkfFHV4jXpPFQw0GAbJ--17">
          <mxGeometry y="390" width="250" height="30" as="geometry" />
        </mxCell>
        <mxCell id="e4m-j2ss9lmUibt1OsKQ-26" value="&amp;nbsp;+ updateFile(String fileName, String str)" style="text;html=1;strokeColor=none;fillColor=none;align=left;verticalAlign=middle;whiteSpace=wrap;rounded=0;" vertex="1" parent="zkfFHV4jXpPFQw0GAbJ--17">
          <mxGeometry y="420" width="250" height="30" as="geometry" />
        </mxCell>
        <mxCell id="e4m-j2ss9lmUibt1OsKQ-27" value="CloudStorageDevice" style="swimlane;fontStyle=1;align=center;verticalAlign=top;childLayout=stackLayout;horizontal=1;startSize=26;horizontalStack=0;resizeParent=1;resizeParentMax=0;resizeLast=0;collapsible=1;marginBottom=0;" vertex="1" parent="WIyWlLk6GJQsqaUBKTNV-1">
          <mxGeometry x="980" y="10" width="160" height="140" as="geometry" />
        </mxCell>
        <mxCell id="e4m-j2ss9lmUibt1OsKQ-28" value="+ maxRange: double" style="text;strokeColor=none;fillColor=none;align=left;verticalAlign=top;spacingLeft=4;spacingRight=4;overflow=hidden;rotatable=0;points=[[0,0.5],[1,0.5]];portConstraint=eastwest;" vertex="1" parent="e4m-j2ss9lmUibt1OsKQ-27">
          <mxGeometry y="26" width="160" height="26" as="geometry" />
        </mxCell>
        <mxCell id="e4m-j2ss9lmUibt1OsKQ-29" value="" style="line;strokeWidth=1;fillColor=none;align=left;verticalAlign=middle;spacingTop=-1;spacingLeft=3;spacingRight=3;rotatable=0;labelPosition=right;points=[];portConstraint=eastwest;" vertex="1" parent="e4m-j2ss9lmUibt1OsKQ-27">
          <mxGeometry y="52" width="160" height="8" as="geometry" />
        </mxCell>
        <mxCell id="e4m-j2ss9lmUibt1OsKQ-30" value="+ getMaxRange():double&#xa;&#xa;+ CloudStorageDevice(String &#xa;deviceId, Angle position, &#xa;String type): " style="text;strokeColor=none;fillColor=none;align=left;verticalAlign=top;spacingLeft=4;spacingRight=4;overflow=hidden;rotatable=0;points=[[0,0.5],[1,0.5]];portConstraint=eastwest;" vertex="1" parent="e4m-j2ss9lmUibt1OsKQ-27">
          <mxGeometry y="60" width="160" height="80" as="geometry" />
        </mxCell>
        <mxCell id="e4m-j2ss9lmUibt1OsKQ-31" value="DesktopDevice" style="swimlane;fontStyle=1;align=center;verticalAlign=top;childLayout=stackLayout;horizontal=1;startSize=26;horizontalStack=0;resizeParent=1;resizeParentMax=0;resizeLast=0;collapsible=1;marginBottom=0;" vertex="1" parent="WIyWlLk6GJQsqaUBKTNV-1">
          <mxGeometry x="980" y="175" width="160" height="140" as="geometry" />
        </mxCell>
        <mxCell id="e4m-j2ss9lmUibt1OsKQ-32" value="+ maxRange: double" style="text;strokeColor=none;fillColor=none;align=left;verticalAlign=top;spacingLeft=4;spacingRight=4;overflow=hidden;rotatable=0;points=[[0,0.5],[1,0.5]];portConstraint=eastwest;" vertex="1" parent="e4m-j2ss9lmUibt1OsKQ-31">
          <mxGeometry y="26" width="160" height="26" as="geometry" />
        </mxCell>
        <mxCell id="e4m-j2ss9lmUibt1OsKQ-33" value="" style="line;strokeWidth=1;fillColor=none;align=left;verticalAlign=middle;spacingTop=-1;spacingLeft=3;spacingRight=3;rotatable=0;labelPosition=right;points=[];portConstraint=eastwest;" vertex="1" parent="e4m-j2ss9lmUibt1OsKQ-31">
          <mxGeometry y="52" width="160" height="8" as="geometry" />
        </mxCell>
        <mxCell id="e4m-j2ss9lmUibt1OsKQ-34" value="+ getMaxRange():double&#xa;&#xa;+ DesktopDevice(String &#xa;deviceId, Angle position, &#xa;String type): " style="text;strokeColor=none;fillColor=none;align=left;verticalAlign=top;spacingLeft=4;spacingRight=4;overflow=hidden;rotatable=0;points=[[0,0.5],[1,0.5]];portConstraint=eastwest;" vertex="1" parent="e4m-j2ss9lmUibt1OsKQ-31">
          <mxGeometry y="60" width="160" height="80" as="geometry" />
        </mxCell>
        <mxCell id="e4m-j2ss9lmUibt1OsKQ-35" value="HandheldDevice" style="swimlane;fontStyle=1;align=center;verticalAlign=top;childLayout=stackLayout;horizontal=1;startSize=26;horizontalStack=0;resizeParent=1;resizeParentMax=0;resizeLast=0;collapsible=1;marginBottom=0;" vertex="1" parent="WIyWlLk6GJQsqaUBKTNV-1">
          <mxGeometry x="980" y="330" width="160" height="140" as="geometry" />
        </mxCell>
        <mxCell id="e4m-j2ss9lmUibt1OsKQ-36" value="+ maxRange: double" style="text;strokeColor=none;fillColor=none;align=left;verticalAlign=top;spacingLeft=4;spacingRight=4;overflow=hidden;rotatable=0;points=[[0,0.5],[1,0.5]];portConstraint=eastwest;" vertex="1" parent="e4m-j2ss9lmUibt1OsKQ-35">
          <mxGeometry y="26" width="160" height="26" as="geometry" />
        </mxCell>
        <mxCell id="e4m-j2ss9lmUibt1OsKQ-37" value="" style="line;strokeWidth=1;fillColor=none;align=left;verticalAlign=middle;spacingTop=-1;spacingLeft=3;spacingRight=3;rotatable=0;labelPosition=right;points=[];portConstraint=eastwest;" vertex="1" parent="e4m-j2ss9lmUibt1OsKQ-35">
          <mxGeometry y="52" width="160" height="8" as="geometry" />
        </mxCell>
        <mxCell id="e4m-j2ss9lmUibt1OsKQ-38" value="+ getMaxRange():double&#xa;&#xa;+ HandheldDevice(String &#xa;deviceId, Angle position, &#xa;String type): " style="text;strokeColor=none;fillColor=none;align=left;verticalAlign=top;spacingLeft=4;spacingRight=4;overflow=hidden;rotatable=0;points=[[0,0.5],[1,0.5]];portConstraint=eastwest;" vertex="1" parent="e4m-j2ss9lmUibt1OsKQ-35">
          <mxGeometry y="60" width="160" height="80" as="geometry" />
        </mxCell>
        <mxCell id="e4m-j2ss9lmUibt1OsKQ-39" value="LaptopDevice" style="swimlane;fontStyle=1;align=center;verticalAlign=top;childLayout=stackLayout;horizontal=1;startSize=26;horizontalStack=0;resizeParent=1;resizeParentMax=0;resizeLast=0;collapsible=1;marginBottom=0;" vertex="1" parent="WIyWlLk6GJQsqaUBKTNV-1">
          <mxGeometry x="980" y="480" width="160" height="140" as="geometry" />
        </mxCell>
        <mxCell id="e4m-j2ss9lmUibt1OsKQ-40" value="+ maxRange: double" style="text;strokeColor=none;fillColor=none;align=left;verticalAlign=top;spacingLeft=4;spacingRight=4;overflow=hidden;rotatable=0;points=[[0,0.5],[1,0.5]];portConstraint=eastwest;" vertex="1" parent="e4m-j2ss9lmUibt1OsKQ-39">
          <mxGeometry y="26" width="160" height="26" as="geometry" />
        </mxCell>
        <mxCell id="e4m-j2ss9lmUibt1OsKQ-41" value="" style="line;strokeWidth=1;fillColor=none;align=left;verticalAlign=middle;spacingTop=-1;spacingLeft=3;spacingRight=3;rotatable=0;labelPosition=right;points=[];portConstraint=eastwest;" vertex="1" parent="e4m-j2ss9lmUibt1OsKQ-39">
          <mxGeometry y="52" width="160" height="8" as="geometry" />
        </mxCell>
        <mxCell id="e4m-j2ss9lmUibt1OsKQ-42" value="+ getMaxRange():double&#xa;&#xa;+ LaptopDevice(String &#xa;deviceId, Angle position, &#xa;String type): " style="text;strokeColor=none;fillColor=none;align=left;verticalAlign=top;spacingLeft=4;spacingRight=4;overflow=hidden;rotatable=0;points=[[0,0.5],[1,0.5]];portConstraint=eastwest;" vertex="1" parent="e4m-j2ss9lmUibt1OsKQ-39">
          <mxGeometry y="60" width="160" height="80" as="geometry" />
        </mxCell>
        <mxCell id="e4m-j2ss9lmUibt1OsKQ-43" style="edgeStyle=orthogonalEdgeStyle;rounded=0;orthogonalLoop=1;jettySize=auto;html=1;exitX=0;exitY=0.5;exitDx=0;exitDy=0;entryX=1.004;entryY=0.231;entryDx=0;entryDy=0;entryPerimeter=0;endArrow=diamondThin;endFill=0;strokeWidth=1;endSize=12;" edge="1" parent="WIyWlLk6GJQsqaUBKTNV-1" source="e4m-j2ss9lmUibt1OsKQ-30" target="zkfFHV4jXpPFQw0GAbJ--22">
          <mxGeometry relative="1" as="geometry" />
        </mxCell>
        <mxCell id="e4m-j2ss9lmUibt1OsKQ-44" style="edgeStyle=orthogonalEdgeStyle;rounded=0;orthogonalLoop=1;jettySize=auto;html=1;exitX=0;exitY=0.5;exitDx=0;exitDy=0;entryX=1.004;entryY=0.231;entryDx=0;entryDy=0;entryPerimeter=0;endArrow=diamondThin;endFill=0;strokeWidth=1;endSize=12;" edge="1" parent="WIyWlLk6GJQsqaUBKTNV-1">
          <mxGeometry relative="1" as="geometry">
            <mxPoint x="979" y="229.5" as="sourcePoint" />
            <mxPoint x="840" y="229.50599999999997" as="targetPoint" />
          </mxGeometry>
        </mxCell>
        <mxCell id="e4m-j2ss9lmUibt1OsKQ-45" style="edgeStyle=orthogonalEdgeStyle;rounded=0;orthogonalLoop=1;jettySize=auto;html=1;exitX=0;exitY=0.5;exitDx=0;exitDy=0;entryX=1.004;entryY=0.231;entryDx=0;entryDy=0;entryPerimeter=0;endArrow=diamondThin;endFill=0;strokeWidth=1;endSize=12;" edge="1" parent="WIyWlLk6GJQsqaUBKTNV-1">
          <mxGeometry relative="1" as="geometry">
            <mxPoint x="980" y="390" as="sourcePoint" />
            <mxPoint x="841" y="390.006" as="targetPoint" />
          </mxGeometry>
        </mxCell>
        <mxCell id="e4m-j2ss9lmUibt1OsKQ-46" style="edgeStyle=orthogonalEdgeStyle;rounded=0;orthogonalLoop=1;jettySize=auto;html=1;exitX=0;exitY=0.5;exitDx=0;exitDy=0;entryX=1;entryY=0.25;entryDx=0;entryDy=0;endArrow=diamondThin;endFill=0;endSize=12;strokeWidth=1;" edge="1" parent="WIyWlLk6GJQsqaUBKTNV-1" source="e4m-j2ss9lmUibt1OsKQ-40" target="e4m-j2ss9lmUibt1OsKQ-26">
          <mxGeometry relative="1" as="geometry" />
        </mxCell>
        <mxCell id="e4m-j2ss9lmUibt1OsKQ-47" value="abstract" style="text;html=1;strokeColor=none;fillColor=none;align=center;verticalAlign=middle;whiteSpace=wrap;rounded=0;" vertex="1" parent="WIyWlLk6GJQsqaUBKTNV-1">
          <mxGeometry x="880" y="80" width="60" height="30" as="geometry" />
        </mxCell>
        <mxCell id="e4m-j2ss9lmUibt1OsKQ-48" value="abstract" style="text;html=1;strokeColor=none;fillColor=none;align=center;verticalAlign=middle;whiteSpace=wrap;rounded=0;" vertex="1" parent="WIyWlLk6GJQsqaUBKTNV-1">
          <mxGeometry x="890" y="200" width="60" height="30" as="geometry" />
        </mxCell>
        <mxCell id="e4m-j2ss9lmUibt1OsKQ-49" value="abstract" style="text;html=1;strokeColor=none;fillColor=none;align=center;verticalAlign=middle;whiteSpace=wrap;rounded=0;" vertex="1" parent="WIyWlLk6GJQsqaUBKTNV-1">
          <mxGeometry x="890" y="360" width="60" height="30" as="geometry" />
        </mxCell>
        <mxCell id="e4m-j2ss9lmUibt1OsKQ-50" value="abstract" style="text;html=1;strokeColor=none;fillColor=none;align=center;verticalAlign=middle;whiteSpace=wrap;rounded=0;" vertex="1" parent="WIyWlLk6GJQsqaUBKTNV-1">
          <mxGeometry x="860" y="450" width="60" height="30" as="geometry" />
        </mxCell>
        <mxCell id="e4m-j2ss9lmUibt1OsKQ-67" value="Classname" style="swimlane;fontStyle=1;align=center;verticalAlign=top;childLayout=stackLayout;horizontal=1;startSize=26;horizontalStack=0;resizeParent=1;resizeParentMax=0;resizeLast=0;collapsible=1;marginBottom=0;" vertex="1" parent="WIyWlLk6GJQsqaUBKTNV-1">
          <mxGeometry x="50" y="590" width="210" height="760" as="geometry" />
        </mxCell>
        <mxCell id="e4m-j2ss9lmUibt1OsKQ-71" value="- height: double" style="text;strokeColor=none;fillColor=none;align=left;verticalAlign=top;spacingLeft=4;spacingRight=4;overflow=hidden;rotatable=0;points=[[0,0.5],[1,0.5]];portConstraint=eastwest;" vertex="1" parent="e4m-j2ss9lmUibt1OsKQ-67">
          <mxGeometry y="26" width="210" height="26" as="geometry" />
        </mxCell>
        <mxCell id="e4m-j2ss9lmUibt1OsKQ-55" value="&amp;nbsp;- position: Angle" style="text;html=1;strokeColor=none;fillColor=none;align=left;verticalAlign=middle;whiteSpace=wrap;rounded=0;" vertex="1" parent="e4m-j2ss9lmUibt1OsKQ-67">
          <mxGeometry y="52" width="210" height="30" as="geometry" />
        </mxCell>
        <mxCell id="e4m-j2ss9lmUibt1OsKQ-72" value="&amp;nbsp;- type: String" style="text;html=1;strokeColor=none;fillColor=none;align=left;verticalAlign=middle;whiteSpace=wrap;rounded=0;" vertex="1" parent="e4m-j2ss9lmUibt1OsKQ-67">
          <mxGeometry y="82" width="210" height="30" as="geometry" />
        </mxCell>
        <mxCell id="e4m-j2ss9lmUibt1OsKQ-73" value="&amp;nbsp;- file: Map&amp;lt;String, FileInfoResponse&amp;gt;" style="text;html=1;strokeColor=none;fillColor=none;align=left;verticalAlign=middle;whiteSpace=wrap;rounded=0;" vertex="1" parent="e4m-j2ss9lmUibt1OsKQ-67">
          <mxGeometry y="112" width="210" height="30" as="geometry" />
        </mxCell>
        <mxCell id="e4m-j2ss9lmUibt1OsKQ-74" value="&amp;nbsp;- satelliteId: String" style="text;html=1;strokeColor=none;fillColor=none;align=left;verticalAlign=middle;whiteSpace=wrap;rounded=0;" vertex="1" parent="e4m-j2ss9lmUibt1OsKQ-67">
          <mxGeometry y="142" width="210" height="30" as="geometry" />
        </mxCell>
        <mxCell id="e4m-j2ss9lmUibt1OsKQ-69" value="" style="line;strokeWidth=1;fillColor=none;align=left;verticalAlign=middle;spacingTop=-1;spacingLeft=3;spacingRight=3;rotatable=0;labelPosition=right;points=[];portConstraint=eastwest;" vertex="1" parent="e4m-j2ss9lmUibt1OsKQ-67">
          <mxGeometry y="172" width="210" height="28" as="geometry" />
        </mxCell>
        <mxCell id="e4m-j2ss9lmUibt1OsKQ-75" value="&amp;nbsp;+ Satellite(double, height, Angle position, String satelliteId, String type)" style="text;html=1;strokeColor=none;fillColor=none;align=left;verticalAlign=middle;whiteSpace=wrap;rounded=0;" vertex="1" parent="e4m-j2ss9lmUibt1OsKQ-67">
          <mxGeometry y="200" width="210" height="30" as="geometry" />
        </mxCell>
        <mxCell id="e4m-j2ss9lmUibt1OsKQ-76" value="&amp;nbsp;+ getSatelliteId(): String" style="text;html=1;strokeColor=none;fillColor=none;align=left;verticalAlign=middle;whiteSpace=wrap;rounded=0;" vertex="1" parent="e4m-j2ss9lmUibt1OsKQ-67">
          <mxGeometry y="230" width="210" height="30" as="geometry" />
        </mxCell>
        <mxCell id="e4m-j2ss9lmUibt1OsKQ-77" value="&amp;nbsp;+ getPosition(): Angle" style="text;html=1;strokeColor=none;fillColor=none;align=left;verticalAlign=middle;whiteSpace=wrap;rounded=0;" vertex="1" parent="e4m-j2ss9lmUibt1OsKQ-67">
          <mxGeometry y="260" width="210" height="30" as="geometry" />
        </mxCell>
        <mxCell id="e4m-j2ss9lmUibt1OsKQ-78" value="&amp;nbsp;+ getHeight(): double" style="text;html=1;strokeColor=none;fillColor=none;align=left;verticalAlign=middle;whiteSpace=wrap;rounded=0;" vertex="1" parent="e4m-j2ss9lmUibt1OsKQ-67">
          <mxGeometry y="290" width="210" height="30" as="geometry" />
        </mxCell>
        <mxCell id="e4m-j2ss9lmUibt1OsKQ-79" value="&amp;nbsp;+ getType(): String" style="text;html=1;strokeColor=none;fillColor=none;align=left;verticalAlign=middle;whiteSpace=wrap;rounded=0;" vertex="1" parent="e4m-j2ss9lmUibt1OsKQ-67">
          <mxGeometry y="320" width="210" height="30" as="geometry" />
        </mxCell>
        <mxCell id="e4m-j2ss9lmUibt1OsKQ-80" value="&amp;nbsp;+ getStoreBytes(): int" style="text;html=1;strokeColor=none;fillColor=none;align=left;verticalAlign=middle;whiteSpace=wrap;rounded=0;" vertex="1" parent="e4m-j2ss9lmUibt1OsKQ-67">
          <mxGeometry y="350" width="210" height="30" as="geometry" />
        </mxCell>
        <mxCell id="e4m-j2ss9lmUibt1OsKQ-81" value="&amp;nbsp;+ getStoreFiles(): int" style="text;html=1;strokeColor=none;fillColor=none;align=left;verticalAlign=middle;whiteSpace=wrap;rounded=0;" vertex="1" parent="e4m-j2ss9lmUibt1OsKQ-67">
          <mxGeometry y="380" width="210" height="30" as="geometry" />
        </mxCell>
        <mxCell id="e4m-j2ss9lmUibt1OsKQ-82" value="&amp;nbsp;+ getVelocity(): double" style="text;html=1;strokeColor=none;fillColor=none;align=left;verticalAlign=middle;whiteSpace=wrap;rounded=0;" vertex="1" parent="e4m-j2ss9lmUibt1OsKQ-67">
          <mxGeometry y="410" width="210" height="30" as="geometry" />
        </mxCell>
        <mxCell id="e4m-j2ss9lmUibt1OsKQ-83" value="&amp;nbsp;+ getAngularVelocity(): double" style="text;html=1;strokeColor=none;fillColor=none;align=left;verticalAlign=middle;whiteSpace=wrap;rounded=0;" vertex="1" parent="e4m-j2ss9lmUibt1OsKQ-67">
          <mxGeometry y="440" width="210" height="30" as="geometry" />
        </mxCell>
        <mxCell id="e4m-j2ss9lmUibt1OsKQ-84" value="&amp;nbsp;+ setPosition(Angle position):" style="text;html=1;strokeColor=none;fillColor=none;align=left;verticalAlign=middle;whiteSpace=wrap;rounded=0;" vertex="1" parent="e4m-j2ss9lmUibt1OsKQ-67">
          <mxGeometry y="470" width="210" height="30" as="geometry" />
        </mxCell>
        <mxCell id="e4m-j2ss9lmUibt1OsKQ-85" value="&amp;nbsp;+ getMaxRange(): double" style="text;html=1;strokeColor=none;fillColor=none;align=left;verticalAlign=middle;whiteSpace=wrap;rounded=0;" vertex="1" parent="e4m-j2ss9lmUibt1OsKQ-67">
          <mxGeometry y="500" width="210" height="30" as="geometry" />
        </mxCell>
        <mxCell id="e4m-j2ss9lmUibt1OsKQ-87" value="&amp;nbsp;+ getFile(): Map&amp;lt;String,FileInfoResponse&amp;gt;" style="text;html=1;strokeColor=none;fillColor=none;align=left;verticalAlign=middle;whiteSpace=wrap;rounded=0;" vertex="1" parent="e4m-j2ss9lmUibt1OsKQ-67">
          <mxGeometry y="530" width="210" height="30" as="geometry" />
        </mxCell>
        <mxCell id="e4m-j2ss9lmUibt1OsKQ-88" value="&amp;nbsp;+ getSendSpeed(): int" style="text;html=1;strokeColor=none;fillColor=none;align=left;verticalAlign=middle;whiteSpace=wrap;rounded=0;" vertex="1" parent="e4m-j2ss9lmUibt1OsKQ-67">
          <mxGeometry y="560" width="210" height="30" as="geometry" />
        </mxCell>
        <mxCell id="e4m-j2ss9lmUibt1OsKQ-89" value="&amp;nbsp;+ getReceiveSpeed(): int" style="text;html=1;strokeColor=none;fillColor=none;align=left;verticalAlign=middle;whiteSpace=wrap;rounded=0;" vertex="1" parent="e4m-j2ss9lmUibt1OsKQ-67">
          <mxGeometry y="590" width="210" height="30" as="geometry" />
        </mxCell>
        <mxCell id="e4m-j2ss9lmUibt1OsKQ-90" value="&amp;nbsp;+ setFile(String fileName, String fileContent):" style="text;html=1;strokeColor=none;fillColor=none;align=left;verticalAlign=middle;whiteSpace=wrap;rounded=0;" vertex="1" parent="e4m-j2ss9lmUibt1OsKQ-67">
          <mxGeometry y="620" width="210" height="30" as="geometry" />
        </mxCell>
        <mxCell id="e4m-j2ss9lmUibt1OsKQ-91" value="&amp;nbsp;+ isLinkedSate(Satellite satellite): boolean" style="text;html=1;strokeColor=none;fillColor=none;align=left;verticalAlign=middle;whiteSpace=wrap;rounded=0;" vertex="1" parent="e4m-j2ss9lmUibt1OsKQ-67">
          <mxGeometry y="650" width="210" height="30" as="geometry" />
        </mxCell>
        <mxCell id="e4m-j2ss9lmUibt1OsKQ-93" value="&amp;nbsp;+ isLinkedDevice(Device device): boolean" style="text;html=1;strokeColor=none;fillColor=none;align=left;verticalAlign=middle;whiteSpace=wrap;rounded=0;" vertex="1" parent="e4m-j2ss9lmUibt1OsKQ-67">
          <mxGeometry y="680" width="210" height="30" as="geometry" />
        </mxCell>
        <mxCell id="e4m-j2ss9lmUibt1OsKQ-94" value="+ updateFile(String fileName, String str)" style="text;html=1;strokeColor=none;fillColor=none;align=left;verticalAlign=middle;whiteSpace=wrap;rounded=0;" vertex="1" parent="e4m-j2ss9lmUibt1OsKQ-67">
          <mxGeometry y="710" width="210" height="30" as="geometry" />
        </mxCell>
        <mxCell id="e4m-j2ss9lmUibt1OsKQ-68" value="&#xa;&#xa;&#xa;" style="text;strokeColor=none;fillColor=none;align=left;verticalAlign=top;spacingLeft=4;spacingRight=4;overflow=hidden;rotatable=0;points=[[0,0.5],[1,0.5]];portConstraint=eastwest;" vertex="1" parent="e4m-j2ss9lmUibt1OsKQ-67">
          <mxGeometry y="740" width="210" height="20" as="geometry" />
        </mxCell>
        <mxCell id="e4m-j2ss9lmUibt1OsKQ-95" value="StandardSatellite" style="swimlane;fontStyle=1;align=center;verticalAlign=top;childLayout=stackLayout;horizontal=1;startSize=26;horizontalStack=0;resizeParent=1;resizeParentMax=0;resizeLast=0;collapsible=1;marginBottom=0;" vertex="1" parent="WIyWlLk6GJQsqaUBKTNV-1">
          <mxGeometry x="460" y="510" width="160" height="460" as="geometry" />
        </mxCell>
        <mxCell id="e4m-j2ss9lmUibt1OsKQ-96" value="- linearSpeed: int" style="text;strokeColor=none;fillColor=none;align=left;verticalAlign=top;spacingLeft=4;spacingRight=4;overflow=hidden;rotatable=0;points=[[0,0.5],[1,0.5]];portConstraint=eastwest;" vertex="1" parent="e4m-j2ss9lmUibt1OsKQ-95">
          <mxGeometry y="26" width="160" height="26" as="geometry" />
        </mxCell>
        <mxCell id="e4m-j2ss9lmUibt1OsKQ-99" value="- storeFile: int" style="text;strokeColor=none;fillColor=none;align=left;verticalAlign=top;spacingLeft=4;spacingRight=4;overflow=hidden;rotatable=0;points=[[0,0.5],[1,0.5]];portConstraint=eastwest;" vertex="1" parent="e4m-j2ss9lmUibt1OsKQ-95">
          <mxGeometry y="52" width="160" height="26" as="geometry" />
        </mxCell>
        <mxCell id="e4m-j2ss9lmUibt1OsKQ-100" value="- storeBytes: int" style="text;strokeColor=none;fillColor=none;align=left;verticalAlign=top;spacingLeft=4;spacingRight=4;overflow=hidden;rotatable=0;points=[[0,0.5],[1,0.5]];portConstraint=eastwest;" vertex="1" parent="e4m-j2ss9lmUibt1OsKQ-95">
          <mxGeometry y="78" width="160" height="26" as="geometry" />
        </mxCell>
        <mxCell id="e4m-j2ss9lmUibt1OsKQ-101" value="- maxRange: double" style="text;strokeColor=none;fillColor=none;align=left;verticalAlign=top;spacingLeft=4;spacingRight=4;overflow=hidden;rotatable=0;points=[[0,0.5],[1,0.5]];portConstraint=eastwest;" vertex="1" parent="e4m-j2ss9lmUibt1OsKQ-95">
          <mxGeometry y="104" width="160" height="26" as="geometry" />
        </mxCell>
        <mxCell id="e4m-j2ss9lmUibt1OsKQ-102" value="- sendSpeed: int" style="text;strokeColor=none;fillColor=none;align=left;verticalAlign=top;spacingLeft=4;spacingRight=4;overflow=hidden;rotatable=0;points=[[0,0.5],[1,0.5]];portConstraint=eastwest;" vertex="1" parent="e4m-j2ss9lmUibt1OsKQ-95">
          <mxGeometry y="130" width="160" height="26" as="geometry" />
        </mxCell>
        <mxCell id="e4m-j2ss9lmUibt1OsKQ-103" value="- receiveSpeed: int" style="text;strokeColor=none;fillColor=none;align=left;verticalAlign=top;spacingLeft=4;spacingRight=4;overflow=hidden;rotatable=0;points=[[0,0.5],[1,0.5]];portConstraint=eastwest;" vertex="1" parent="e4m-j2ss9lmUibt1OsKQ-95">
          <mxGeometry y="156" width="160" height="26" as="geometry" />
        </mxCell>
        <mxCell id="e4m-j2ss9lmUibt1OsKQ-97" value="" style="line;strokeWidth=1;fillColor=none;align=left;verticalAlign=middle;spacingTop=-1;spacingLeft=3;spacingRight=3;rotatable=0;labelPosition=right;points=[];portConstraint=eastwest;" vertex="1" parent="e4m-j2ss9lmUibt1OsKQ-95">
          <mxGeometry y="182" width="160" height="18" as="geometry" />
        </mxCell>
        <mxCell id="e4m-j2ss9lmUibt1OsKQ-104" value="+ StandardSatellite(double height, Angle position, String satelliteId, String type)" style="text;html=1;strokeColor=none;fillColor=none;align=left;verticalAlign=middle;whiteSpace=wrap;rounded=0;" vertex="1" parent="e4m-j2ss9lmUibt1OsKQ-95">
          <mxGeometry y="200" width="160" height="50" as="geometry" />
        </mxCell>
        <mxCell id="e4m-j2ss9lmUibt1OsKQ-105" value="&amp;nbsp;+ getVelocity(): double" style="text;html=1;strokeColor=none;fillColor=none;align=left;verticalAlign=middle;whiteSpace=wrap;rounded=0;" vertex="1" parent="e4m-j2ss9lmUibt1OsKQ-95">
          <mxGeometry y="250" width="160" height="30" as="geometry" />
        </mxCell>
        <mxCell id="e4m-j2ss9lmUibt1OsKQ-106" value="&amp;nbsp;+ getMaxRange(): double" style="text;html=1;strokeColor=none;fillColor=none;align=left;verticalAlign=middle;whiteSpace=wrap;rounded=0;" vertex="1" parent="e4m-j2ss9lmUibt1OsKQ-95">
          <mxGeometry y="280" width="160" height="30" as="geometry" />
        </mxCell>
        <mxCell id="e4m-j2ss9lmUibt1OsKQ-107" value="&amp;nbsp;+ getStoreBytes(): int" style="text;html=1;strokeColor=none;fillColor=none;align=left;verticalAlign=middle;whiteSpace=wrap;rounded=0;" vertex="1" parent="e4m-j2ss9lmUibt1OsKQ-95">
          <mxGeometry y="310" width="160" height="30" as="geometry" />
        </mxCell>
        <mxCell id="e4m-j2ss9lmUibt1OsKQ-109" value="+ setFile(String fileNmae, String fileContent)" style="text;html=1;strokeColor=none;fillColor=none;align=left;verticalAlign=middle;whiteSpace=wrap;rounded=0;" vertex="1" parent="e4m-j2ss9lmUibt1OsKQ-95">
          <mxGeometry y="340" width="160" height="30" as="geometry" />
        </mxCell>
        <mxCell id="e4m-j2ss9lmUibt1OsKQ-110" value="&amp;nbsp;+ getStoreFiles(): int" style="text;html=1;strokeColor=none;fillColor=none;align=left;verticalAlign=middle;whiteSpace=wrap;rounded=0;" vertex="1" parent="e4m-j2ss9lmUibt1OsKQ-95">
          <mxGeometry y="370" width="160" height="30" as="geometry" />
        </mxCell>
        <mxCell id="e4m-j2ss9lmUibt1OsKQ-111" value="&amp;nbsp;+ getSendSpeed(): int" style="text;html=1;strokeColor=none;fillColor=none;align=left;verticalAlign=middle;whiteSpace=wrap;rounded=0;" vertex="1" parent="e4m-j2ss9lmUibt1OsKQ-95">
          <mxGeometry y="400" width="160" height="30" as="geometry" />
        </mxCell>
        <mxCell id="e4m-j2ss9lmUibt1OsKQ-112" value="&amp;nbsp;+ getReceiveSpeed(): int" style="text;html=1;strokeColor=none;fillColor=none;align=left;verticalAlign=middle;whiteSpace=wrap;rounded=0;" vertex="1" parent="e4m-j2ss9lmUibt1OsKQ-95">
          <mxGeometry y="430" width="160" height="30" as="geometry" />
        </mxCell>
        <mxCell id="e4m-j2ss9lmUibt1OsKQ-113" value="ShrinkingSatellite" style="swimlane;fontStyle=1;align=center;verticalAlign=top;childLayout=stackLayout;horizontal=1;startSize=26;horizontalStack=0;resizeParent=1;resizeParentMax=0;resizeLast=0;collapsible=1;marginBottom=0;" vertex="1" parent="WIyWlLk6GJQsqaUBKTNV-1">
          <mxGeometry x="690" y="510" width="160" height="460" as="geometry" />
        </mxCell>
        <mxCell id="e4m-j2ss9lmUibt1OsKQ-114" value="- linearSpeed: int" style="text;strokeColor=none;fillColor=none;align=left;verticalAlign=top;spacingLeft=4;spacingRight=4;overflow=hidden;rotatable=0;points=[[0,0.5],[1,0.5]];portConstraint=eastwest;" vertex="1" parent="e4m-j2ss9lmUibt1OsKQ-113">
          <mxGeometry y="26" width="160" height="26" as="geometry" />
        </mxCell>
        <mxCell id="e4m-j2ss9lmUibt1OsKQ-115" value="- storeFile: int" style="text;strokeColor=none;fillColor=none;align=left;verticalAlign=top;spacingLeft=4;spacingRight=4;overflow=hidden;rotatable=0;points=[[0,0.5],[1,0.5]];portConstraint=eastwest;" vertex="1" parent="e4m-j2ss9lmUibt1OsKQ-113">
          <mxGeometry y="52" width="160" height="26" as="geometry" />
        </mxCell>
        <mxCell id="e4m-j2ss9lmUibt1OsKQ-116" value="- storeBytes: int" style="text;strokeColor=none;fillColor=none;align=left;verticalAlign=top;spacingLeft=4;spacingRight=4;overflow=hidden;rotatable=0;points=[[0,0.5],[1,0.5]];portConstraint=eastwest;" vertex="1" parent="e4m-j2ss9lmUibt1OsKQ-113">
          <mxGeometry y="78" width="160" height="26" as="geometry" />
        </mxCell>
        <mxCell id="e4m-j2ss9lmUibt1OsKQ-117" value="- maxRange: double" style="text;strokeColor=none;fillColor=none;align=left;verticalAlign=top;spacingLeft=4;spacingRight=4;overflow=hidden;rotatable=0;points=[[0,0.5],[1,0.5]];portConstraint=eastwest;" vertex="1" parent="e4m-j2ss9lmUibt1OsKQ-113">
          <mxGeometry y="104" width="160" height="26" as="geometry" />
        </mxCell>
        <mxCell id="e4m-j2ss9lmUibt1OsKQ-118" value="- sendSpeed: int" style="text;strokeColor=none;fillColor=none;align=left;verticalAlign=top;spacingLeft=4;spacingRight=4;overflow=hidden;rotatable=0;points=[[0,0.5],[1,0.5]];portConstraint=eastwest;" vertex="1" parent="e4m-j2ss9lmUibt1OsKQ-113">
          <mxGeometry y="130" width="160" height="26" as="geometry" />
        </mxCell>
        <mxCell id="e4m-j2ss9lmUibt1OsKQ-119" value="- receiveSpeed: int" style="text;strokeColor=none;fillColor=none;align=left;verticalAlign=top;spacingLeft=4;spacingRight=4;overflow=hidden;rotatable=0;points=[[0,0.5],[1,0.5]];portConstraint=eastwest;" vertex="1" parent="e4m-j2ss9lmUibt1OsKQ-113">
          <mxGeometry y="156" width="160" height="26" as="geometry" />
        </mxCell>
        <mxCell id="e4m-j2ss9lmUibt1OsKQ-120" value="" style="line;strokeWidth=1;fillColor=none;align=left;verticalAlign=middle;spacingTop=-1;spacingLeft=3;spacingRight=3;rotatable=0;labelPosition=right;points=[];portConstraint=eastwest;" vertex="1" parent="e4m-j2ss9lmUibt1OsKQ-113">
          <mxGeometry y="182" width="160" height="18" as="geometry" />
        </mxCell>
        <mxCell id="e4m-j2ss9lmUibt1OsKQ-121" value="+ ShrinkingSatellite(double height, Angle position, String satelliteId, String type)" style="text;html=1;strokeColor=none;fillColor=none;align=left;verticalAlign=middle;whiteSpace=wrap;rounded=0;" vertex="1" parent="e4m-j2ss9lmUibt1OsKQ-113">
          <mxGeometry y="200" width="160" height="50" as="geometry" />
        </mxCell>
        <mxCell id="e4m-j2ss9lmUibt1OsKQ-122" value="&amp;nbsp;+ getVelocity(): double" style="text;html=1;strokeColor=none;fillColor=none;align=left;verticalAlign=middle;whiteSpace=wrap;rounded=0;" vertex="1" parent="e4m-j2ss9lmUibt1OsKQ-113">
          <mxGeometry y="250" width="160" height="30" as="geometry" />
        </mxCell>
        <mxCell id="e4m-j2ss9lmUibt1OsKQ-123" value="&amp;nbsp;+ getMaxRange(): double" style="text;html=1;strokeColor=none;fillColor=none;align=left;verticalAlign=middle;whiteSpace=wrap;rounded=0;" vertex="1" parent="e4m-j2ss9lmUibt1OsKQ-113">
          <mxGeometry y="280" width="160" height="30" as="geometry" />
        </mxCell>
        <mxCell id="e4m-j2ss9lmUibt1OsKQ-124" value="&amp;nbsp;+ getStoreBytes(): int" style="text;html=1;strokeColor=none;fillColor=none;align=left;verticalAlign=middle;whiteSpace=wrap;rounded=0;" vertex="1" parent="e4m-j2ss9lmUibt1OsKQ-113">
          <mxGeometry y="310" width="160" height="30" as="geometry" />
        </mxCell>
        <mxCell id="e4m-j2ss9lmUibt1OsKQ-125" value="+ setFile(String fileNmae, String fileContent)" style="text;html=1;strokeColor=none;fillColor=none;align=left;verticalAlign=middle;whiteSpace=wrap;rounded=0;" vertex="1" parent="e4m-j2ss9lmUibt1OsKQ-113">
          <mxGeometry y="340" width="160" height="30" as="geometry" />
        </mxCell>
        <mxCell id="e4m-j2ss9lmUibt1OsKQ-126" value="&amp;nbsp;+ getStoreFiles(): int" style="text;html=1;strokeColor=none;fillColor=none;align=left;verticalAlign=middle;whiteSpace=wrap;rounded=0;" vertex="1" parent="e4m-j2ss9lmUibt1OsKQ-113">
          <mxGeometry y="370" width="160" height="30" as="geometry" />
        </mxCell>
        <mxCell id="e4m-j2ss9lmUibt1OsKQ-127" value="&amp;nbsp;+ getSendSpeed(): int" style="text;html=1;strokeColor=none;fillColor=none;align=left;verticalAlign=middle;whiteSpace=wrap;rounded=0;" vertex="1" parent="e4m-j2ss9lmUibt1OsKQ-113">
          <mxGeometry y="400" width="160" height="30" as="geometry" />
        </mxCell>
        <mxCell id="e4m-j2ss9lmUibt1OsKQ-128" value="&amp;nbsp;+ getReceiveSpeed(): int" style="text;html=1;strokeColor=none;fillColor=none;align=left;verticalAlign=middle;whiteSpace=wrap;rounded=0;" vertex="1" parent="e4m-j2ss9lmUibt1OsKQ-113">
          <mxGeometry y="430" width="160" height="30" as="geometry" />
        </mxCell>
        <mxCell id="e4m-j2ss9lmUibt1OsKQ-165" style="edgeStyle=orthogonalEdgeStyle;rounded=0;orthogonalLoop=1;jettySize=auto;html=1;exitX=0.5;exitY=0;exitDx=0;exitDy=0;endArrow=none;endFill=0;endSize=12;strokeWidth=1;" edge="1" parent="WIyWlLk6GJQsqaUBKTNV-1" source="e4m-j2ss9lmUibt1OsKQ-129">
          <mxGeometry relative="1" as="geometry">
            <mxPoint x="530" y="1020" as="targetPoint" />
          </mxGeometry>
        </mxCell>
        <mxCell id="e4m-j2ss9lmUibt1OsKQ-129" value="RelaySatellite" style="swimlane;fontStyle=1;align=center;verticalAlign=top;childLayout=stackLayout;horizontal=1;startSize=26;horizontalStack=0;resizeParent=1;resizeParentMax=0;resizeLast=0;collapsible=1;marginBottom=0;" vertex="1" parent="WIyWlLk6GJQsqaUBKTNV-1">
          <mxGeometry x="450" y="1080" width="160" height="460" as="geometry" />
        </mxCell>
        <mxCell id="e4m-j2ss9lmUibt1OsKQ-130" value="- linearSpeed: int" style="text;strokeColor=none;fillColor=none;align=left;verticalAlign=top;spacingLeft=4;spacingRight=4;overflow=hidden;rotatable=0;points=[[0,0.5],[1,0.5]];portConstraint=eastwest;" vertex="1" parent="e4m-j2ss9lmUibt1OsKQ-129">
          <mxGeometry y="26" width="160" height="26" as="geometry" />
        </mxCell>
        <mxCell id="e4m-j2ss9lmUibt1OsKQ-131" value="- storeFile: int" style="text;strokeColor=none;fillColor=none;align=left;verticalAlign=top;spacingLeft=4;spacingRight=4;overflow=hidden;rotatable=0;points=[[0,0.5],[1,0.5]];portConstraint=eastwest;" vertex="1" parent="e4m-j2ss9lmUibt1OsKQ-129">
          <mxGeometry y="52" width="160" height="26" as="geometry" />
        </mxCell>
        <mxCell id="e4m-j2ss9lmUibt1OsKQ-132" value="- storeBytes: int" style="text;strokeColor=none;fillColor=none;align=left;verticalAlign=top;spacingLeft=4;spacingRight=4;overflow=hidden;rotatable=0;points=[[0,0.5],[1,0.5]];portConstraint=eastwest;" vertex="1" parent="e4m-j2ss9lmUibt1OsKQ-129">
          <mxGeometry y="78" width="160" height="26" as="geometry" />
        </mxCell>
        <mxCell id="e4m-j2ss9lmUibt1OsKQ-133" value="- maxRange: double" style="text;strokeColor=none;fillColor=none;align=left;verticalAlign=top;spacingLeft=4;spacingRight=4;overflow=hidden;rotatable=0;points=[[0,0.5],[1,0.5]];portConstraint=eastwest;" vertex="1" parent="e4m-j2ss9lmUibt1OsKQ-129">
          <mxGeometry y="104" width="160" height="26" as="geometry" />
        </mxCell>
        <mxCell id="e4m-j2ss9lmUibt1OsKQ-134" value="- sendSpeed: int" style="text;strokeColor=none;fillColor=none;align=left;verticalAlign=top;spacingLeft=4;spacingRight=4;overflow=hidden;rotatable=0;points=[[0,0.5],[1,0.5]];portConstraint=eastwest;" vertex="1" parent="e4m-j2ss9lmUibt1OsKQ-129">
          <mxGeometry y="130" width="160" height="26" as="geometry" />
        </mxCell>
        <mxCell id="e4m-j2ss9lmUibt1OsKQ-135" value="- receiveSpeed: int" style="text;strokeColor=none;fillColor=none;align=left;verticalAlign=top;spacingLeft=4;spacingRight=4;overflow=hidden;rotatable=0;points=[[0,0.5],[1,0.5]];portConstraint=eastwest;" vertex="1" parent="e4m-j2ss9lmUibt1OsKQ-129">
          <mxGeometry y="156" width="160" height="26" as="geometry" />
        </mxCell>
        <mxCell id="e4m-j2ss9lmUibt1OsKQ-136" value="" style="line;strokeWidth=1;fillColor=none;align=left;verticalAlign=middle;spacingTop=-1;spacingLeft=3;spacingRight=3;rotatable=0;labelPosition=right;points=[];portConstraint=eastwest;" vertex="1" parent="e4m-j2ss9lmUibt1OsKQ-129">
          <mxGeometry y="182" width="160" height="18" as="geometry" />
        </mxCell>
        <mxCell id="e4m-j2ss9lmUibt1OsKQ-137" value="+ RelaySatellite(double height, Angle position, String satelliteId, String type)" style="text;html=1;strokeColor=none;fillColor=none;align=left;verticalAlign=middle;whiteSpace=wrap;rounded=0;" vertex="1" parent="e4m-j2ss9lmUibt1OsKQ-129">
          <mxGeometry y="200" width="160" height="50" as="geometry" />
        </mxCell>
        <mxCell id="e4m-j2ss9lmUibt1OsKQ-138" value="&amp;nbsp;+ getVelocity(): double" style="text;html=1;strokeColor=none;fillColor=none;align=left;verticalAlign=middle;whiteSpace=wrap;rounded=0;" vertex="1" parent="e4m-j2ss9lmUibt1OsKQ-129">
          <mxGeometry y="250" width="160" height="30" as="geometry" />
        </mxCell>
        <mxCell id="e4m-j2ss9lmUibt1OsKQ-139" value="&amp;nbsp;+ getMaxRange(): double" style="text;html=1;strokeColor=none;fillColor=none;align=left;verticalAlign=middle;whiteSpace=wrap;rounded=0;" vertex="1" parent="e4m-j2ss9lmUibt1OsKQ-129">
          <mxGeometry y="280" width="160" height="30" as="geometry" />
        </mxCell>
        <mxCell id="e4m-j2ss9lmUibt1OsKQ-140" value="&amp;nbsp;+ getStoreBytes(): int" style="text;html=1;strokeColor=none;fillColor=none;align=left;verticalAlign=middle;whiteSpace=wrap;rounded=0;" vertex="1" parent="e4m-j2ss9lmUibt1OsKQ-129">
          <mxGeometry y="310" width="160" height="30" as="geometry" />
        </mxCell>
        <mxCell id="e4m-j2ss9lmUibt1OsKQ-141" value="+ setFile(String fileNmae, String fileContent)" style="text;html=1;strokeColor=none;fillColor=none;align=left;verticalAlign=middle;whiteSpace=wrap;rounded=0;" vertex="1" parent="e4m-j2ss9lmUibt1OsKQ-129">
          <mxGeometry y="340" width="160" height="30" as="geometry" />
        </mxCell>
        <mxCell id="e4m-j2ss9lmUibt1OsKQ-142" value="&amp;nbsp;+ getStoreFiles(): int" style="text;html=1;strokeColor=none;fillColor=none;align=left;verticalAlign=middle;whiteSpace=wrap;rounded=0;" vertex="1" parent="e4m-j2ss9lmUibt1OsKQ-129">
          <mxGeometry y="370" width="160" height="30" as="geometry" />
        </mxCell>
        <mxCell id="e4m-j2ss9lmUibt1OsKQ-143" value="&amp;nbsp;+ getSendSpeed(): int" style="text;html=1;strokeColor=none;fillColor=none;align=left;verticalAlign=middle;whiteSpace=wrap;rounded=0;" vertex="1" parent="e4m-j2ss9lmUibt1OsKQ-129">
          <mxGeometry y="400" width="160" height="30" as="geometry" />
        </mxCell>
        <mxCell id="e4m-j2ss9lmUibt1OsKQ-144" value="&amp;nbsp;+ getReceiveSpeed(): int" style="text;html=1;strokeColor=none;fillColor=none;align=left;verticalAlign=middle;whiteSpace=wrap;rounded=0;" vertex="1" parent="e4m-j2ss9lmUibt1OsKQ-129">
          <mxGeometry y="430" width="160" height="30" as="geometry" />
        </mxCell>
        <mxCell id="e4m-j2ss9lmUibt1OsKQ-163" style="edgeStyle=orthogonalEdgeStyle;rounded=0;orthogonalLoop=1;jettySize=auto;html=1;exitX=0.5;exitY=0;exitDx=0;exitDy=0;endArrow=none;endFill=0;endSize=12;strokeWidth=1;" edge="1" parent="WIyWlLk6GJQsqaUBKTNV-1" source="e4m-j2ss9lmUibt1OsKQ-145">
          <mxGeometry relative="1" as="geometry">
            <mxPoint x="770" y="1020" as="targetPoint" />
          </mxGeometry>
        </mxCell>
        <mxCell id="e4m-j2ss9lmUibt1OsKQ-145" value="ElephantSatellite" style="swimlane;fontStyle=1;align=center;verticalAlign=top;childLayout=stackLayout;horizontal=1;startSize=26;horizontalStack=0;resizeParent=1;resizeParentMax=0;resizeLast=0;collapsible=1;marginBottom=0;" vertex="1" parent="WIyWlLk6GJQsqaUBKTNV-1">
          <mxGeometry x="690" y="1080" width="160" height="460" as="geometry" />
        </mxCell>
        <mxCell id="e4m-j2ss9lmUibt1OsKQ-146" value="- linearSpeed: int" style="text;strokeColor=none;fillColor=none;align=left;verticalAlign=top;spacingLeft=4;spacingRight=4;overflow=hidden;rotatable=0;points=[[0,0.5],[1,0.5]];portConstraint=eastwest;" vertex="1" parent="e4m-j2ss9lmUibt1OsKQ-145">
          <mxGeometry y="26" width="160" height="26" as="geometry" />
        </mxCell>
        <mxCell id="e4m-j2ss9lmUibt1OsKQ-147" value="- storeFile: int" style="text;strokeColor=none;fillColor=none;align=left;verticalAlign=top;spacingLeft=4;spacingRight=4;overflow=hidden;rotatable=0;points=[[0,0.5],[1,0.5]];portConstraint=eastwest;" vertex="1" parent="e4m-j2ss9lmUibt1OsKQ-145">
          <mxGeometry y="52" width="160" height="26" as="geometry" />
        </mxCell>
        <mxCell id="e4m-j2ss9lmUibt1OsKQ-148" value="- storeBytes: int" style="text;strokeColor=none;fillColor=none;align=left;verticalAlign=top;spacingLeft=4;spacingRight=4;overflow=hidden;rotatable=0;points=[[0,0.5],[1,0.5]];portConstraint=eastwest;" vertex="1" parent="e4m-j2ss9lmUibt1OsKQ-145">
          <mxGeometry y="78" width="160" height="26" as="geometry" />
        </mxCell>
        <mxCell id="e4m-j2ss9lmUibt1OsKQ-149" value="- maxRange: double" style="text;strokeColor=none;fillColor=none;align=left;verticalAlign=top;spacingLeft=4;spacingRight=4;overflow=hidden;rotatable=0;points=[[0,0.5],[1,0.5]];portConstraint=eastwest;" vertex="1" parent="e4m-j2ss9lmUibt1OsKQ-145">
          <mxGeometry y="104" width="160" height="26" as="geometry" />
        </mxCell>
        <mxCell id="e4m-j2ss9lmUibt1OsKQ-150" value="- sendSpeed: int" style="text;strokeColor=none;fillColor=none;align=left;verticalAlign=top;spacingLeft=4;spacingRight=4;overflow=hidden;rotatable=0;points=[[0,0.5],[1,0.5]];portConstraint=eastwest;" vertex="1" parent="e4m-j2ss9lmUibt1OsKQ-145">
          <mxGeometry y="130" width="160" height="26" as="geometry" />
        </mxCell>
        <mxCell id="e4m-j2ss9lmUibt1OsKQ-151" value="- receiveSpeed: int" style="text;strokeColor=none;fillColor=none;align=left;verticalAlign=top;spacingLeft=4;spacingRight=4;overflow=hidden;rotatable=0;points=[[0,0.5],[1,0.5]];portConstraint=eastwest;" vertex="1" parent="e4m-j2ss9lmUibt1OsKQ-145">
          <mxGeometry y="156" width="160" height="26" as="geometry" />
        </mxCell>
        <mxCell id="e4m-j2ss9lmUibt1OsKQ-152" value="" style="line;strokeWidth=1;fillColor=none;align=left;verticalAlign=middle;spacingTop=-1;spacingLeft=3;spacingRight=3;rotatable=0;labelPosition=right;points=[];portConstraint=eastwest;" vertex="1" parent="e4m-j2ss9lmUibt1OsKQ-145">
          <mxGeometry y="182" width="160" height="18" as="geometry" />
        </mxCell>
        <mxCell id="e4m-j2ss9lmUibt1OsKQ-153" value="+ ElephantSatellite(double height, Angle position, String satelliteId, String type)" style="text;html=1;strokeColor=none;fillColor=none;align=left;verticalAlign=middle;whiteSpace=wrap;rounded=0;" vertex="1" parent="e4m-j2ss9lmUibt1OsKQ-145">
          <mxGeometry y="200" width="160" height="50" as="geometry" />
        </mxCell>
        <mxCell id="e4m-j2ss9lmUibt1OsKQ-154" value="&amp;nbsp;+ getVelocity(): double" style="text;html=1;strokeColor=none;fillColor=none;align=left;verticalAlign=middle;whiteSpace=wrap;rounded=0;" vertex="1" parent="e4m-j2ss9lmUibt1OsKQ-145">
          <mxGeometry y="250" width="160" height="30" as="geometry" />
        </mxCell>
        <mxCell id="e4m-j2ss9lmUibt1OsKQ-155" value="&amp;nbsp;+ getMaxRange(): double" style="text;html=1;strokeColor=none;fillColor=none;align=left;verticalAlign=middle;whiteSpace=wrap;rounded=0;" vertex="1" parent="e4m-j2ss9lmUibt1OsKQ-145">
          <mxGeometry y="280" width="160" height="30" as="geometry" />
        </mxCell>
        <mxCell id="e4m-j2ss9lmUibt1OsKQ-156" value="&amp;nbsp;+ getStoreBytes(): int" style="text;html=1;strokeColor=none;fillColor=none;align=left;verticalAlign=middle;whiteSpace=wrap;rounded=0;" vertex="1" parent="e4m-j2ss9lmUibt1OsKQ-145">
          <mxGeometry y="310" width="160" height="30" as="geometry" />
        </mxCell>
        <mxCell id="e4m-j2ss9lmUibt1OsKQ-157" value="+ setFile(String fileNmae, String fileContent)" style="text;html=1;strokeColor=none;fillColor=none;align=left;verticalAlign=middle;whiteSpace=wrap;rounded=0;" vertex="1" parent="e4m-j2ss9lmUibt1OsKQ-145">
          <mxGeometry y="340" width="160" height="30" as="geometry" />
        </mxCell>
        <mxCell id="e4m-j2ss9lmUibt1OsKQ-158" value="&amp;nbsp;+ getStoreFiles(): int" style="text;html=1;strokeColor=none;fillColor=none;align=left;verticalAlign=middle;whiteSpace=wrap;rounded=0;" vertex="1" parent="e4m-j2ss9lmUibt1OsKQ-145">
          <mxGeometry y="370" width="160" height="30" as="geometry" />
        </mxCell>
        <mxCell id="e4m-j2ss9lmUibt1OsKQ-159" value="&amp;nbsp;+ getSendSpeed(): int" style="text;html=1;strokeColor=none;fillColor=none;align=left;verticalAlign=middle;whiteSpace=wrap;rounded=0;" vertex="1" parent="e4m-j2ss9lmUibt1OsKQ-145">
          <mxGeometry y="400" width="160" height="30" as="geometry" />
        </mxCell>
        <mxCell id="e4m-j2ss9lmUibt1OsKQ-160" value="&amp;nbsp;+ getReceiveSpeed(): int" style="text;html=1;strokeColor=none;fillColor=none;align=left;verticalAlign=middle;whiteSpace=wrap;rounded=0;" vertex="1" parent="e4m-j2ss9lmUibt1OsKQ-145">
          <mxGeometry y="430" width="160" height="30" as="geometry" />
        </mxCell>
        <mxCell id="e4m-j2ss9lmUibt1OsKQ-161" style="edgeStyle=orthogonalEdgeStyle;rounded=0;orthogonalLoop=1;jettySize=auto;html=1;entryX=1.004;entryY=0.231;entryDx=0;entryDy=0;entryPerimeter=0;endArrow=diamondThin;endFill=0;strokeWidth=1;endSize=12;" edge="1" parent="WIyWlLk6GJQsqaUBKTNV-1">
          <mxGeometry relative="1" as="geometry">
            <mxPoint x="770" y="1020" as="sourcePoint" />
            <mxPoint x="260" y="1020.0059999999999" as="targetPoint" />
          </mxGeometry>
        </mxCell>
        <mxCell id="e4m-j2ss9lmUibt1OsKQ-162" style="edgeStyle=orthogonalEdgeStyle;rounded=0;orthogonalLoop=1;jettySize=auto;html=1;exitX=0.5;exitY=1;exitDx=0;exitDy=0;endArrow=none;endFill=0;endSize=12;strokeWidth=1;" edge="1" parent="WIyWlLk6GJQsqaUBKTNV-1" source="e4m-j2ss9lmUibt1OsKQ-128">
          <mxGeometry relative="1" as="geometry">
            <mxPoint x="770" y="1020" as="targetPoint" />
          </mxGeometry>
        </mxCell>
        <mxCell id="e4m-j2ss9lmUibt1OsKQ-164" style="edgeStyle=orthogonalEdgeStyle;rounded=0;orthogonalLoop=1;jettySize=auto;html=1;exitX=0.5;exitY=1;exitDx=0;exitDy=0;endArrow=none;endFill=0;endSize=12;strokeWidth=1;" edge="1" parent="WIyWlLk6GJQsqaUBKTNV-1" source="e4m-j2ss9lmUibt1OsKQ-112">
          <mxGeometry relative="1" as="geometry">
            <mxPoint x="540" y="1020" as="targetPoint" />
          </mxGeometry>
        </mxCell>
        <mxCell id="e4m-j2ss9lmUibt1OsKQ-166" value="abstract" style="text;html=1;strokeColor=none;fillColor=none;align=center;verticalAlign=middle;whiteSpace=wrap;rounded=0;" vertex="1" parent="WIyWlLk6GJQsqaUBKTNV-1">
          <mxGeometry x="354" y="980" width="60" height="30" as="geometry" />
        </mxCell>
      </root>
    </mxGraphModel>
  </diagram>
</mxfile>
